<?xml version="1.0" encoding="utf-8"?>
<!-- Generator: Adobe Illustrator 14.0.0, SVG Export Plug-In . SVG Version: 6.00 Build 43363)  -->
<!DOCTYPE svg PUBLIC "-//W3C//DTD SVG 1.1//EN" "http://www.w3.org/Graphics/SVG/1.1/DTD/svg11.dtd">
<svg version="1.1" id="图层_1" xmlns="http://www.w3.org/2000/svg" xmlns:xlink="http://www.w3.org/1999/xlink" x="0px" y="0px"
	 width="96px" height="96px" viewBox="0 0 96 96" enable-background="new 0 0 96 96" xml:space="preserve">
<g>
	<path fill-opacity="0.4" d="M88,49c0,29.633-10.362,40-40,40C18.365,89,8,78.633,8,49C8,19.365,18.365,9,48,9
		C77.637,9,88,19.365,88,49z"/>
	<rect x="0" fill="none" width="96" height="96"/>
	
		<linearGradient id="SVGID_1_" gradientUnits="userSpaceOnUse" x1="48.0198" y1="669.9053" x2="48.0198" y2="589.9053" gradientTransform="matrix(1 0 0 1 -0.02 -581.9053)">
		<stop  offset="0" style="stop-color:#0D78DF"/>
		<stop  offset="0.5" style="stop-color:#2196F3"/>
		<stop  offset="1" style="stop-color:#3FB4FF"/>
	</linearGradient>
	<path fill="url(#SVGID_1_)" d="M88,48c0,29.633-10.362,40-40,40C18.365,88,8,77.633,8,48C8,18.365,18.365,8,48,8
		C77.637,8,88,18.365,88,48z"/>
	
		<linearGradient id="SVGID_2_" gradientUnits="userSpaceOnUse" x1="295.6794" y1="-682.2275" x2="295.6794" y2="-761.4736" gradientTransform="matrix(1 0 0 -1 -247.6802 -673.9746)">
		<stop  offset="0" style="stop-color:#FFFFFF"/>
		<stop  offset="0.5" style="stop-color:#FFFFFF;stop-opacity:0"/>
		<stop  offset="1" style="stop-color:#000000;stop-opacity:0.2"/>
	</linearGradient>
	<path fill="url(#SVGID_2_)" fill-opacity="0.25" d="M48,8C18.365,8,8,18.365,8,48c0,29.633,10.365,40,40,40
		c29.638,0,40-10.367,40-40C88,18.365,77.637,8,48,8z M48,87C18.842,87,9,77.159,9,48C9,18.842,18.842,9,48,9s39,9.842,39,39
		C87,77.159,77.158,87,48,87z"/>
	<g>
		<path fill-opacity="0.02" d="M46,77.214c-1.603,0-3.107-0.624-4.242-1.758l-1.413-1.415c-1.135-1.134-1.759-2.641-1.759-4.242
			s0.624-3.109,1.759-4.242L48.9,57H28c-3.309,0-6-2.691-6-6v-2c0-3.309,2.691-6,6-6h20.9l-8.558-8.557
			c-1.133-1.131-1.757-2.639-1.757-4.242s0.624-3.11,1.757-4.243l1.414-1.414c1.133-1.133,2.64-1.758,4.242-1.758
			c1.604,0,3.11,0.625,4.242,1.758l21.215,21.213c1.134,1.136,1.758,2.642,1.758,4.242c0,1.603-0.624,3.108-1.758,4.242
			L50.241,75.455C49.108,76.59,47.603,77.214,46,77.214z"/>
		<path fill-opacity="0.04" d="M46,76.214c-1.335,0-2.591-0.521-3.535-1.465l-1.414-1.415c-0.943-0.943-1.465-2.2-1.465-3.535
			c0-1.336,0.521-2.592,1.465-3.535L51.314,56H28c-2.757,0-5-2.243-5-5v-2c0-2.757,2.243-5,5-5h23.314L41.05,33.736
			c-0.943-0.943-1.464-2.199-1.464-3.535s0.521-2.592,1.464-3.536l1.414-1.415c0.943-0.943,2.199-1.465,3.535-1.465
			s2.592,0.521,3.535,1.465l21.215,21.214c0.944,0.945,1.465,2.201,1.465,3.535c0,1.335-0.521,2.591-1.465,3.535L49.534,74.748
			C48.591,75.693,47.335,76.214,46,76.214z"/>
		<path fill-opacity="0.06" d="M46,75.214c-1.067,0-2.071-0.416-2.828-1.172l-1.414-1.415c-0.756-0.756-1.172-1.76-1.172-2.828
			s0.416-2.072,1.172-2.828L53.729,55H28c-2.206,0-4-1.794-4-4v-2c0-2.206,1.794-4,4-4h25.729L41.758,33.029
			c-0.755-0.754-1.171-1.76-1.171-2.828c0-1.069,0.416-2.074,1.171-2.828l1.414-1.415c0.755-0.756,1.761-1.172,2.828-1.172
			c1.068,0,2.073,0.417,2.828,1.172l21.215,21.214c0.756,0.756,1.172,1.762,1.172,2.828c0,1.068-0.416,2.072-1.172,2.828
			L48.828,74.042C48.072,74.798,47.068,75.214,46,75.214z"/>
		<path fill-opacity="0.08" d="M46,74.214c-0.801,0-1.555-0.313-2.121-0.879l-1.414-1.415c-0.565-0.566-0.879-1.32-0.879-2.121
			c0-0.802,0.313-1.556,0.879-2.122L56.143,54H28c-1.653,0-3-1.346-3-3v-2c0-1.654,1.347-3,3-3h28.144L42.465,32.322
			c-1.17-1.17-1.17-3.073,0-4.242l1.414-1.415c0.566-0.567,1.32-0.879,2.121-0.879s1.556,0.312,2.121,0.879l21.215,21.214
			c0.566,0.566,0.879,1.32,0.879,2.121s-0.313,1.555-0.879,2.121L48.121,73.335C47.555,73.9,46.801,74.214,46,74.214z"/>
		<path fill-opacity="0.1" d="M46,73.214c-0.529,0-1.039-0.211-1.414-0.586l-1.414-1.415c-0.78-0.781-0.78-2.048,0-2.828L58.557,53
			H28c-1.104,0-2-0.896-2-2v-2c0-1.104,0.896-2,2-2h30.558L43.172,31.615c-0.78-0.781-0.78-2.047,0-2.828l1.414-1.415
			c0.375-0.375,0.885-0.586,1.415-0.586s1.039,0.21,1.414,0.586l21.214,21.213c0.375,0.375,0.586,0.884,0.586,1.414
			s-0.211,1.039-0.586,1.414L47.415,72.627C47.039,73.003,46.53,73.214,46,73.214L46,73.214z"/>
		
			<linearGradient id="SVGID_3_" gradientUnits="userSpaceOnUse" x1="47.6272" y1="653.1191" x2="47.6272" y2="606.6914" gradientTransform="matrix(1 0 0 1 -0.02 -581.9053)">
			<stop  offset="0" style="stop-color:#D0CBC5"/>
			<stop  offset="0.5" style="stop-color:#EEEEE3"/>
			<stop  offset="1" style="stop-color:#FBFDF3"/>
		</linearGradient>
		<path fill="url(#SVGID_3_)" d="M46,71.214c-0.529,0-1.039-0.211-1.414-0.586l-1.414-1.415c-0.78-0.781-0.78-2.048,0-2.828
			L58.557,51H28c-1.104,0-2-0.896-2-2v-2c0-1.104,0.896-2,2-2h30.558L43.172,29.615c-0.78-0.781-0.78-2.047,0-2.828l1.414-1.415
			c0.375-0.375,0.885-0.586,1.415-0.586s1.039,0.21,1.414,0.586l21.214,21.213c0.375,0.375,0.586,0.884,0.586,1.414
			s-0.211,1.039-0.586,1.414L47.415,70.627C47.039,71.003,46.53,71.214,46,71.214L46,71.214z"/>
		<g>
			<path fill="#FFFFFF" d="M58.557,52h-1L43.172,66.385c-0.519,0.52-0.686,1.251-0.514,1.914c0.086-0.334,0.252-0.652,0.514-0.914
				L58.557,52z"/>
			<path fill="#FFFFFF" d="M43.171,27.787l1.414-1.415c0.375-0.375,0.885-0.586,1.415-0.586s1.039,0.21,1.414,0.586l21.214,21.213
				c0.254,0.254,0.426,0.572,0.515,0.914c0.042-0.163,0.071-0.329,0.071-0.5c0-0.53-0.211-1.039-0.586-1.414L47.414,25.372
				c-0.375-0.375-0.884-0.586-1.414-0.586s-1.04,0.211-1.415,0.586l-1.414,1.415c-0.519,0.52-0.685,1.251-0.514,1.914
				C42.744,28.367,42.91,28.049,43.171,27.787z"/>
			<path fill="#FFFFFF" d="M28,46h30.558l-1-1H28c-1.104,0-2,0.896-2,2v1C26,46.895,26.896,46,28,46z"/>
		</g>
		<g>
			<path fill-opacity="0.05" d="M58.557,50H28c-1.104,0-2-0.896-2-2v1c0,1.104,0.896,2,2,2h29.558L58.557,50z"/>
			<path fill-opacity="0.05" d="M57.557,44h1L43.172,28.615c-0.262-0.262-0.428-0.58-0.514-0.914
				c-0.171,0.663-0.005,1.395,0.514,1.914L57.557,44z"/>
			<path fill-opacity="0.05" d="M68.628,48.414L47.414,69.628c-0.375,0.375-0.884,0.586-1.414,0.586l0,0
				c-0.529,0-1.039-0.211-1.414-0.586l-1.414-1.415c-0.262-0.262-0.428-0.58-0.514-0.914c-0.171,0.663-0.005,1.395,0.514,1.914
				l1.414,1.415c0.375,0.375,0.885,0.586,1.414,0.586l0,0c0.53,0,1.039-0.211,1.414-0.586l21.214-21.214
				c0.375-0.375,0.586-0.884,0.586-1.414c0-0.171-0.028-0.337-0.071-0.5C69.054,47.842,68.883,48.16,68.628,48.414z"/>
		</g>
		<g>
			<path fill-opacity="0.05" d="M56.557,43h2L43.172,27.615c-0.126-0.126-0.224-0.268-0.309-0.414
				c-0.444,0.765-0.346,1.759,0.309,2.414L56.557,43z"/>
			<path fill-opacity="0.05" d="M58.557,49H28c-1.104,0-2-0.896-2-2v2c0,1.104,0.896,2,2,2h28.558L58.557,49z"/>
			<path fill-opacity="0.05" d="M68.628,47.414L47.414,68.628c-0.375,0.375-0.884,0.586-1.414,0.586l0,0
				c-0.529,0-1.039-0.211-1.414-0.586l-1.414-1.415c-0.126-0.126-0.224-0.267-0.309-0.414c-0.444,0.766-0.346,1.76,0.309,2.414
				l1.414,1.415c0.375,0.375,0.885,0.586,1.414,0.586l0,0c0.53,0,1.039-0.211,1.414-0.586l21.214-21.214
				c0.375-0.375,0.586-0.884,0.586-1.414c0-0.355-0.102-0.698-0.277-1C68.85,47.148,68.752,47.29,68.628,47.414z"/>
		</g>
	</g>
</g>
</svg>
