<?xml version="1.0" encoding="utf-8"?>
<!-- Generator: Adobe Illustrator 18.0.0, SVG Export Plug-In . SVG Version: 6.00 Build 0)  -->
<svg version="1.1" id="图层_1" xmlns="http://www.w3.org/2000/svg" xmlns:xlink="http://www.w3.org/1999/xlink" x="0px" y="0px"
	 width="96px" height="96px" viewBox="0 0 96 96" enable-background="new 0 0 96 96" xml:space="preserve">
<g>
	<path fill-opacity="0.4" d="M88,49c0,29.633-10.363,40-40,40C18.365,89,8,78.633,8,49C8,19.365,18.365,9,48,9
		C77.637,9,88,19.365,88,49z"/>
	<rect fill="none" width="96" height="96"/>
	<linearGradient id="SVGID_1_" gradientUnits="userSpaceOnUse" x1="48" y1="88" x2="48" y2="8">
		<stop  offset="0" style="stop-color:#0D78DF"/>
		<stop  offset="0.5" style="stop-color:#2196F3"/>
		<stop  offset="1" style="stop-color:#3FB4FF"/>
	</linearGradient>
	<path fill="url(#SVGID_1_)" d="M88,48c0,29.633-10.363,40-40,40C18.365,88,8,77.633,8,48C8,18.365,18.365,8,48,8
		C77.637,8,88,18.365,88,48z"/>
	
		<linearGradient id="SVGID_2_" gradientUnits="userSpaceOnUse" x1="295.6602" y1="-522.2129" x2="295.6602" y2="-601.459" gradientTransform="matrix(1 0 0 -1 -247.6602 -513.96)">
		<stop  offset="0" style="stop-color:#FFFFFF"/>
		<stop  offset="0.5" style="stop-color:#FFFFFF;stop-opacity:0"/>
		<stop  offset="1" style="stop-color:#000000;stop-opacity:0.2"/>
	</linearGradient>
	<path fill="url(#SVGID_2_)" fill-opacity="0.25" d="M48,8C18.365,8,8,18.365,8,48c0,29.633,10.365,40,40,40
		c29.637,0,40-10.367,40-40C88,18.365,77.637,8,48,8z M48,87C18.842,87,9,77.159,9,48C9,18.842,18.842,9,48,9s39,9.842,39,39
		C87,77.159,77.158,87,48,87z"/>
	<g>
		<path opacity="0.02" enable-background="new    " d="M45.979,78.042c-1.068,0-2.073-0.416-2.828-1.172l-4.243-4.243
			c-0.755-0.755-1.172-1.76-1.172-2.828s0.417-2.073,1.172-2.828L48.879,57h-22.9c-2.206,0-4-1.794-4-4v-6c0-2.206,1.794-4,4-4h22.9
			l-9.971-9.971c-0.756-0.755-1.172-1.76-1.172-2.828s0.416-2.073,1.172-2.828l4.243-4.243c0.755-0.755,1.759-1.172,2.828-1.172
			c1.068,0,2.073,0.416,2.829,1.172l24.041,24.042c0.756,0.755,1.172,1.76,1.172,2.828s-0.416,2.072-1.172,2.828L48.808,76.87
			C48.052,77.626,47.047,78.042,45.979,78.042z"/>
		<path opacity="0.04" enable-background="new    " d="M45.979,77.042c-0.801,0-1.555-0.313-2.121-0.879l-4.243-4.243
			c-0.567-0.566-0.879-1.32-0.879-2.121s0.312-1.555,0.879-2.121L51.293,56H25.979c-1.654,0-3-1.346-3-3v-6c0-1.654,1.346-3,3-3
			h25.314L39.615,32.322c-0.567-0.567-0.879-1.32-0.879-2.121s0.312-1.554,0.879-2.121l4.243-4.243
			c0.566-0.567,1.32-0.879,2.121-0.879s1.555,0.312,2.122,0.879l24.041,24.042c0.566,0.566,0.879,1.32,0.879,2.121
			s-0.313,1.555-0.879,2.121L48.101,76.163C47.534,76.729,46.78,77.042,45.979,77.042z"/>
		<path opacity="0.06" enable-background="new    " d="M45.979,76.042c-0.534,0-1.036-0.208-1.414-0.586l-4.243-4.243
			c-0.378-0.378-0.586-0.88-0.586-1.414s0.208-1.036,0.586-1.414L53.707,55H25.979c-1.103,0-2-0.897-2-2v-6c0-1.103,0.897-2,2-2
			h27.728L40.322,31.615c-0.378-0.378-0.586-0.88-0.586-1.414s0.208-1.036,0.586-1.414l4.243-4.243
			c0.378-0.378,0.88-0.586,1.414-0.586s1.036,0.208,1.414,0.586l24.042,24.042c0.378,0.378,0.586,0.88,0.586,1.414
			s-0.208,1.036-0.586,1.414L47.393,75.456C47.015,75.834,46.513,76.042,45.979,76.042z"/>
		<path opacity="0.08" enable-background="new    " d="M45.979,75.042c-0.265,0-0.52-0.105-0.707-0.293l-4.243-4.243
			c-0.391-0.391-0.391-1.023,0-1.414L56.121,54H25.979c-0.552,0-1-0.447-1-1v-6c0-0.552,0.448-1,1-1h30.142L41.029,30.908
			c-0.391-0.391-0.391-1.023,0-1.414l4.243-4.243c0.195-0.195,0.451-0.293,0.707-0.293s0.512,0.098,0.707,0.293l24.042,24.042
			c0.391,0.391,0.391,1.023,0,1.414L46.686,74.749C46.499,74.937,46.244,75.042,45.979,75.042L45.979,75.042z"/>
		<polygon opacity="0.1" enable-background="new    " points="45.979,25.958 41.737,30.201 58.536,47 25.979,47 25.979,53 
			58.536,53 41.737,69.799 45.979,74.042 70.021,50 		"/>
		<linearGradient id="SVGID_3_" gradientUnits="userSpaceOnUse" x1="48" y1="72.0416" x2="48" y2="23.9584">
			<stop  offset="0" style="stop-color:#D0CBC5"/>
			<stop  offset="0.5" style="stop-color:#EEEEE3"/>
			<stop  offset="1" style="stop-color:#FBFDF3"/>
		</linearGradient>
		<polygon fill="url(#SVGID_3_)" points="45.979,23.958 41.737,28.201 58.536,45 25.979,45 25.979,51 58.536,51 41.737,67.799 
			45.979,72.042 70.021,48 		"/>
		<g opacity="0.05">
			<polygon points="59.536,45 42.237,27.701 41.737,28.201 58.536,45 			"/>
			<polygon points="45.979,71.042 42.237,67.299 41.737,67.799 45.979,72.042 70.021,48 69.521,47.5 			"/>
			<polygon points="59.536,50 25.979,50 25.979,51 58.536,51 			"/>
		</g>
		<g opacity="0.05">
			<polygon points="60.536,45 42.737,27.201 41.737,28.201 58.536,45 			"/>
			<polygon points="60.536,49 25.979,49 25.979,51 58.536,51 			"/>
			<polygon points="45.979,70.042 42.737,66.799 41.737,67.799 45.979,72.042 70.021,48 69.021,47 			"/>
		</g>
		<g>
			<polygon fill="#FFFFFF" points="45.979,24.958 69.521,48.5 70.021,48 45.979,23.958 41.737,28.201 42.237,28.701 			"/>
			<polygon fill="#FFFFFF" points="58.536,51 41.737,67.799 42.237,68.299 58.536,52 			"/>
			<polygon fill="#FFFFFF" points="58.536,45 25.979,45 25.979,46 59.536,46 			"/>
		</g>
	</g>
</g>
</svg>
