<?xml version="1.0" encoding="utf-8"?>
<!-- Generator: Adobe Illustrator 18.0.0, SVG Export Plug-In . SVG Version: 6.00 Build 0)  -->
<svg version="1.1" id="图层_1" xmlns="http://www.w3.org/2000/svg" xmlns:xlink="http://www.w3.org/1999/xlink" x="0px" y="0px"
	 width="100px" height="100px" viewBox="0 0 100 100" enable-background="new 0 0 100 100" xml:space="preserve">
<g>
	<g>
		<path fill="#FFFFFF" d="M50,85.6c-19.6,0-35.6-15.9-35.6-35.6s16-35.6,35.6-35.6c19.6,0,35.6,16,35.6,35.6S69.6,85.6,50,85.6z"/>
		<g>
			<path fill="#155DC2" d="M49.7,59.9C46.6,71,38,78.4,33.7,81.6c4.9,2.5,10.4,4,16.3,4c6.1,0,11.8-1.6,16.8-4.4
				C55.4,72.9,49.7,59.9,49.7,59.9z"/>
			<path fill="#155DC2" d="M76.4,73.6c0.1-0.1,0.2-0.1,0.2-0.2C82,67.1,85.4,59,85.4,50c0-9-3.3-17.1-8.8-23.4
				c-5.3-6.1-12.8-10.4-21.1-11.7v26.7C57.9,60.4,70.5,69.9,76.4,73.6z"/>
			<path fill="#155DC2" d="M44.7,42.1V14.9c-17,2.6-30,17.3-30,35.1c0,9.1,3.5,17.4,9.1,23.7C45.3,58.6,44.7,42.1,44.7,42.1z"/>
		</g>
	</g>
	<rect fill="none" width="100" height="100"/>
</g>
</svg>
