<?xml version="1.0" encoding="utf-8"?>
<!-- Generator: Adobe Illustrator 19.0.0, SVG Export Plug-In . SVG Version: 6.00 Build 0)  -->
<svg version="1.1" id="图层_1" xmlns="http://www.w3.org/2000/svg" xmlns:xlink="http://www.w3.org/1999/xlink" x="0px" y="0px"
	 width="100px" height="100px" viewBox="-247 370.89 100 100" style="enable-background:new -247 370.89 100 100;"
	 xml:space="preserve">
<style type="text/css">
	.st0{fill:none;}
	.st1{fill:#48C7FF;}
</style>
<rect x="-247" y="370.89" class="st0" width="100" height="100"/>
<path d="M-101.705,265.179c0.024-0.104,0.047-0.209,0.072-0.313C-101.659,264.969-101.686,265.072-101.705,265.179z"/>
<path d="M-93.804,266.552c-0.024,0.094-0.039,0.19-0.062,0.285C-93.843,266.742-93.821,266.648-93.804,266.552z"/>
<path class="st1" d="M-201.364,422.012c-13.692,4.975-23.333,16.693-23.333,30.325c0,2.209-1.791,4-4,4s-4-1.791-4-4
	c0-17.352,12.237-32.203,29.441-38.124c0.627-6.032,5.739-10.751,11.934-10.751c6.617,0,12,5.383,12,12s-5.383,12-12,12
	C-195.523,427.463-199.22,425.289-201.364,422.012z M-191.322,385.443c-13.627,0-25.421,9.086-28.918,22.18
	c-0.236,0.513-0.376,1.078-0.376,1.679c0,2.228,1.812,4.04,4.039,4.04c1.993,0,3.643-1.455,3.97-3.356c0,0.001,0,0.003,0,0.004
	c2.501-9.719,11.253-16.506,21.285-16.506c12.12,0,21.98,9.86,21.98,21.98s-9.86,21.98-21.98,21.98
	c-4.273,0-8.418-1.238-12.014-3.545c-0.677-0.518-1.512-0.838-2.428-0.838c-2.217,0-4.02,1.803-4.02,4.02
	c0,1.626,0.974,3.022,2.366,3.654c-0.091-0.038-0.182-0.072-0.273-0.115c4.878,3.182,10.539,4.864,16.369,4.864
	c16.553,0,30.02-13.467,30.02-30.02S-174.77,385.443-191.322,385.443z"/>
</svg>
