<?xml version="1.0" encoding="utf-8"?>
<!-- Generator: Adobe Illustrator 18.0.0, SVG Export Plug-In . SVG Version: 6.00 Build 0)  -->
<svg version="1.1" id="图层_1" xmlns="http://www.w3.org/2000/svg" xmlns:xlink="http://www.w3.org/1999/xlink" x="0px" y="0px"
	 width="100px" height="100px" viewBox="0 0 100 100" enable-background="new 0 0 100 100" xml:space="preserve">
<g>
	<g>
		<path fill="#E6162D" d="M69.2,44.1c1.8-3.9,2.3-13.3-7.5-12.6c-6.5,0.5-11.9,4.6-13.3,4.3c-1.9-0.5,3.2-6.8-1.2-11.3
			C35.1,11.9-13.2,58.7,17.6,78.6C34.8,89.8,67,83.4,77.7,66.4c5.5-8.8,2.6-17.5-7.4-19.4C70.2,47,67.9,46.9,69.2,44.1z"/>
		
			<ellipse transform="matrix(-0.9971 7.649776e-002 -7.649776e-002 -0.9971 85.5856 121.3439)" fill="#FFFFFF" cx="40.5" cy="62.3" rx="25.6" ry="17.4"/>
		<path fill="#FF9933" d="M88.4,43.5c-0.3,0-0.6,0-0.9-0.1c-1.8-0.5-2.8-2.3-2.3-4.1c0.5-1.6,0.7-3.3,0.7-4.9
			c0-9.9-8-17.9-17.9-17.9c-0.7,0-1.4,0-2.2,0.1c-1.8,0.2-3.5-1.1-3.7-2.9c-0.2-1.8,1.1-3.5,2.9-3.7c1.1-0.1,2-0.2,3-0.2
			c13.5,0,24.6,11,24.6,24.6c0,2.3-0.3,4.6-1,6.8C91.1,42.6,89.8,43.5,88.4,43.5L88.4,43.5z M77.4,40c-0.3,0-0.5,0-0.8-0.1
			c-1.6-0.4-2.5-2.1-2-3.6c0.2-0.6,0.3-1.3,0.3-1.9c0-3.8-3.1-6.9-6.9-6.9c-0.2,0-0.5,0-0.9,0.1c-1.6,0.2-3.1-0.9-3.3-2.6
			c-0.2-1.6,0.9-3.1,2.6-3.3c0.6-0.1,1.1-0.1,1.6-0.1c7.1,0,12.8,5.7,12.8,12.8c0,1.2-0.2,2.4-0.5,3.5C79.8,39.2,78.7,40,77.4,40
			L77.4,40z"/>
		<path d="M51.7,61.1c-1.5-6.4-8.7-10.1-16.1-8.4c-7.4,1.7-12.3,8.2-10.8,14.6c1.5,6.4,8.7,10.1,16.1,8.4
			C48.3,74,53.2,67.4,51.7,61.1z M34.9,70.2c-2.4,0.8-4.9-0.4-5.6-2.6c-0.7-2.2,0.7-4.5,3.1-5.3c2.4-0.8,4.9,0.4,5.6,2.6
			C38.7,67.1,37.3,69.4,34.9,70.2z M41.6,63.7c-1,0.3-2-0.2-2.2-1c-0.3-0.9,0.3-1.8,1.3-2.1c1-0.3,2,0.2,2.2,1
			C43.1,62.5,42.6,63.4,41.6,63.7z"/>
	</g>
	<rect fill="none" width="100" height="100"/>
</g>
</svg>
